<?xml version="1.0" encoding="UTF-8"?>
<!DOCTYPE svg PUBLIC "-//W3C//DTD SVG 1.1//EN" "http://www.w3.org/Graphics/SVG/1.1/DTD/svg11.dtd">
<!-- Creator: CorelDRAW 2020 (64-Bit) -->
<svg xmlns="http://www.w3.org/2000/svg" xml:space="preserve" width="4783px" height="744px" version="1.1" style="shape-rendering:geometricPrecision; text-rendering:geometricPrecision; image-rendering:optimizeQuality; fill-rule:evenodd; clip-rule:evenodd"
viewBox="0 0 4783 744.02"
 xmlns:xlink="http://www.w3.org/1999/xlink"
 xmlns:xodm="http://www.corel.com/coreldraw/odm/2003">
 <defs>
  <style type="text/css">
   <![CDATA[
    .str0 {stroke:#282829;stroke-width:35.43;stroke-miterlimit:22.9256}
    .str1 {stroke:#282829;stroke-width:8.86;stroke-miterlimit:22.9256}
    .fil4 {fill:none}
    .fil0 {fill:#FEFEFE}
    .fil2 {fill:#0103F6}
    .fil3 {fill:#96989A;fill-rule:nonzero}
    .fil1 {fill:#282829;fill-rule:nonzero}
   ]]>
  </style>
 </defs>
 <g id="Capa_x0020_1">
  <metadata id="CorelCorpID_0Corel-Layer"/>
  <g id="_2246181638448">
   <path class="fil0 str0" d="M380.55 94.2c1.27,-0.05 2.54,-0.07 3.82,-0.07l157.03 0c1.33,0 2.66,0.02 3.97,0.07l75.56 0c32.77,0 63.17,10.33 88.12,27.91 1.01,-0.68 2.03,-1.36 3.06,-2.02 24.92,-15.9 53.44,-23.12 82.85,-23.12 22.04,0 43.69,3.74 63.76,13.14 20.57,9.65 38.02,24.31 51.66,42.42l118.03 156.66 119.17 -156.95c12.72,-16.75 28.49,-30.74 47.23,-40.43 20.53,-10.62 42.97,-14.84 65.93,-14.84 29.41,0 57.93,7.22 82.86,23.13 25.49,16.27 43.13,40.12 51.65,67.69 2.96,-0.87 5.93,-1.68 8.93,-2.43 28.43,-7.1 58.43,-9.31 87.67,-9.31l92.34 0c29.38,0 59.6,2.17 88.17,9.31 6.8,1.7 13.5,3.71 20.05,6.02 2.69,-51.89 45.85,-93.39 98.39,-93.39l77.55 0c47.4,0 87.17,33.77 96.47,78.49 16.81,1.57 32.42,7.4 45.73,16.4 7.87,-2.96 15.96,-5.46 24.19,-7.52 28.43,-7.1 58.44,-9.31 87.67,-9.31l92.34 0c29.38,0 59.6,2.17 88.18,9.31 3.15,0.79 6.28,1.65 9.39,2.57 8.5,-27.63 26.17,-51.54 51.71,-67.84 24.91,-15.9 53.44,-23.12 82.84,-23.12 22.04,0 43.69,3.74 63.76,13.14 20.57,9.65 38.02,24.31 51.67,42.42l118.02 156.66 119.17 -156.95c12.72,-16.75 28.5,-30.74 47.23,-40.43 20.54,-10.62 42.97,-14.84 65.93,-14.84 29.41,0 57.94,7.22 82.86,23.13 21.79,13.91 37.85,33.37 47.38,55.95l45.77 0c54.27,0 98.53,44.26 98.53,98.52l0 113.19 7.01 0 0 -113.19c0,-54.26 44.26,-98.52 98.53,-98.52l75.5 0c24.01,0 46.07,8.66 63.2,23.03 12.4,-5.82 25.45,-10.35 38.92,-13.72 28.42,-7.1 58.43,-9.31 87.66,-9.31l92.34 0c29.38,0 59.61,2.17 88.18,9.31 26.47,6.62 51.34,17.72 72.78,34.34 21.57,-16.7 46.62,-27.8 73.25,-34.39 28.61,-7.08 58.81,-9.26 88.22,-9.26l55.46 0c4.69,-49.96 46.95,-89.28 98.1,-89.28l76.01 0c54.08,0 98.23,43.96 98.52,97.98 27.68,-6.62 56.77,-8.7 85.14,-8.7l92.34 0c29.38,0 59.6,2.17 88.17,9.31 31.36,7.84 60.39,22.05 84.15,44.22 24.18,22.57 40.55,51.11 49.38,82.9 7.42,26.72 9.98,54.83 9.98,82.49l0 36.73c0,27.66 -2.55,55.81 -10.05,82.51 -8.94,31.82 -25.52,60.31 -49.96,82.71 -23.69,21.71 -52.49,35.61 -83.5,43.36 -28.57,7.15 -58.79,9.32 -88.17,9.32l-92.34 0c-29.24,0 -59.24,-2.21 -87.67,-9.32 -25.53,-6.38 -49.57,-16.93 -70.48,-32.58 -20.92,15.65 -44.96,26.2 -70.49,32.58 -28.57,7.15 -58.79,9.32 -88.17,9.32l-96.42 0c-29.41,0 -59.61,-2.18 -88.22,-9.26 -13.26,-3.28 -26.13,-7.68 -38.38,-13.34 -17.05,14.11 -38.9,22.6 -62.68,22.6l-76.01 0c-54.27,0 -98.53,-44.26 -98.53,-98.52l0 -112.68 -9.05 0 0 112.68c0,54.26 -44.26,98.52 -98.53,98.52l-76.01 0c-24.03,0 -46.1,-8.67 -63.23,-23.06 -12.54,5.88 -25.74,10.43 -39.36,13.8 -28.61,7.08 -58.81,9.26 -88.21,9.26l-89.79 0c-29.24,0 -59.24,-2.21 -87.67,-9.32 -13.58,-3.39 -26.75,-7.97 -39.24,-13.87 -17.16,14.46 -39.28,23.19 -63.38,23.19l-71.43 0c-37.48,0 -70.19,-21.11 -86.84,-52.06l-4.81 6.28c-0.36,0.48 -0.67,0.87 -1.03,1.34 -27.35,34.47 -67.63,52.1 -111.38,52.1 -43.75,0 -84.03,-17.62 -111.37,-52.09 -0.4,-0.51 -0.74,-0.94 -1.13,-1.46l-4.42 -5.79c-16.71,30.74 -49.31,51.68 -86.64,51.68l-70.4 0c-24.01,0 -46.07,-8.67 -63.2,-23.03 -12.39,5.82 -25.45,10.35 -38.91,13.71 -28.58,7.15 -58.8,9.32 -88.18,9.32l-92.34 0c-29.23,0 -59.24,-2.21 -87.67,-9.32 -29.76,-7.44 -57.5,-20.55 -80.63,-40.79 -16.95,29.88 -49.07,50.11 -85.76,50.11l-77.55 0c-26.85,0 -51.25,-10.83 -69.05,-28.35 -15.43,8.45 -32.07,14.7 -49.39,19.03 -28.57,7.15 -58.79,9.32 -88.17,9.32l-92.34 0c-29.24,0 -59.24,-2.21 -87.67,-9.32 -13.35,-3.33 -26.29,-7.81 -38.59,-13.56 -17.1,14.28 -39.09,22.88 -63.02,22.88l-71.42 0c-37.48,0 -70.19,-21.11 -86.84,-52.06l-4.81 6.28c-0.36,0.48 -0.67,0.87 -1.04,1.34 -27.34,34.47 -67.62,52.1 -111.37,52.1 -43.76,0 -84.03,-17.62 -111.37,-52.09 -0.41,-0.51 -0.74,-0.94 -1.14,-1.46l-4.42 -5.79c-16.71,30.74 -49.3,51.68 -86.63,51.68l-70.4 0c-21.73,0 -41.85,-7.09 -58.17,-19.08 -21.96,12.15 -47.2,19.08 -74.03,19.08l-394.58 0c-84.55,0 -153.38,-68.83 -153.38,-153.37l0 -248.66c0,-84.54 68.83,-153.37 153.38,-153.37l154.2 0z"/>
   <path class="fil1" d="M1231.15 551.08l0 -229.06 -169.88 221.92c-7.83,9.86 -19.22,14.79 -34.19,14.79 -14.96,0 -26.35,-4.93 -34.18,-14.79l-169.37 -221.92 0 229.06 -70.4 0 0 -323.95c0,-10.89 3.99,-18.88 11.99,-23.98 7.99,-5.1 17.94,-7.66 29.84,-7.66 9.18,0 16.5,1.28 21.94,3.83 5.44,2.55 10.37,6.72 14.79,12.5l196.42 260.69 197.94 -260.69c4.42,-5.78 9.1,-9.95 14.03,-12.5 4.93,-2.55 11.82,-3.83 20.66,-3.83 11.9,0 21.85,2.56 29.84,7.66 8,5.1 11.99,13.09 11.99,23.98l0 323.95 -71.42 0zm260.69 0c-25.5,0 -46.76,-2.13 -63.77,-6.38 -17,-4.25 -30.61,-11.05 -40.81,-20.41 -10.2,-9.35 -17.43,-21.59 -21.68,-36.73 -4.25,-15.13 -6.38,-33.75 -6.38,-55.86l0 -37.24c0,-22.11 2.13,-40.81 6.38,-56.12 4.25,-15.3 11.48,-27.63 21.68,-36.99 10.2,-9.35 23.81,-16.15 40.81,-20.4 17.01,-4.25 38.27,-6.38 63.77,-6.38l92.34 0c25.85,0 47.28,2.13 64.28,6.38 17.01,4.25 30.61,11.14 40.82,20.66 10.2,9.52 17.43,21.94 21.68,37.24 4.25,15.31 6.38,34.01 6.38,56.12l0 36.73c0,22.11 -2.13,40.73 -6.38,55.86 -4.25,15.14 -11.48,27.38 -21.68,36.73 -10.21,9.36 -23.81,16.16 -40.82,20.41 -17,4.25 -38.43,6.38 -64.28,6.38l-92.34 0zm149.48 -154.07c0,-11.57 -0.93,-21.09 -2.8,-28.57 -1.88,-7.48 -5.28,-13.35 -10.21,-17.6 -4.93,-4.25 -11.82,-7.14 -20.66,-8.67 -8.84,-1.53 -20.07,-2.3 -33.67,-2.3l-71.93 0c-13.61,0 -24.75,0.77 -33.42,2.3 -8.67,1.53 -15.47,4.42 -20.41,8.67 -4.93,4.25 -8.33,10.12 -10.2,17.6 -1.87,7.48 -2.8,17 -2.8,28.57l0 32.65c0,11.56 0.93,21 2.8,28.31 1.87,7.32 5.27,13.1 10.2,17.35 4.94,4.25 11.74,7.23 20.41,8.93 8.67,1.7 19.81,2.55 33.42,2.55l71.93 0c13.6,0 24.83,-0.85 33.67,-2.55 8.84,-1.7 15.73,-4.68 20.66,-8.93 4.93,-4.25 8.33,-10.03 10.21,-17.35 1.87,-7.31 2.8,-16.75 2.8,-28.31l0 -32.65zm149.48 154.07l0 -214.78 -38.77 0 0 -61.73 38.77 0 0 -78.05 77.54 0 0 78.05 87.24 0 0 61.73 -87.24 0 0 214.78 -77.54 0zm331.6 0c-25.5,0 -46.76,-2.13 -63.77,-6.38 -17,-4.25 -30.61,-11.05 -40.81,-20.41 -10.2,-9.35 -17.43,-21.59 -21.68,-36.73 -4.25,-15.13 -6.38,-33.75 -6.38,-55.86l0 -37.24c0,-22.11 2.13,-40.81 6.38,-56.12 4.25,-15.3 11.48,-27.63 21.68,-36.99 10.2,-9.35 23.81,-16.15 40.81,-20.4 17.01,-4.25 38.27,-6.38 63.77,-6.38l92.34 0c25.85,0 47.28,2.13 64.29,6.38 17,4.25 30.6,11.14 40.81,20.66 10.2,9.52 17.43,21.94 21.68,37.24 4.25,15.31 6.38,34.01 6.38,56.12l0 36.73c0,22.11 -2.13,40.73 -6.38,55.86 -4.25,15.14 -11.48,27.38 -21.68,36.73 -10.21,9.36 -23.81,16.16 -40.81,20.41 -17.01,4.25 -38.44,6.38 -64.29,6.38l-92.34 0zm149.48 -154.07c0,-11.57 -0.93,-21.09 -2.8,-28.57 -1.87,-7.48 -5.28,-13.35 -10.21,-17.6 -4.93,-4.25 -11.82,-7.14 -20.66,-8.67 -8.84,-1.53 -20.06,-2.3 -33.67,-2.3l-71.93 0c-13.61,0 -24.75,0.77 -33.42,2.3 -8.67,1.53 -15.47,4.42 -20.4,8.67 -4.94,4.25 -8.34,10.12 -10.21,17.6 -1.87,7.48 -2.8,17 -2.8,28.57l0 32.65c0,11.56 0.93,21 2.8,28.31 1.87,7.32 5.27,13.1 10.21,17.35 4.93,4.25 11.73,7.23 20.4,8.93 8.67,1.7 19.81,2.55 33.42,2.55l71.93 0c13.61,0 24.83,-0.85 33.67,-2.55 8.84,-1.7 15.73,-4.68 20.66,-8.93 4.93,-4.25 8.34,-10.03 10.21,-17.35 1.87,-7.31 2.8,-16.75 2.8,-28.31l0 -32.65z"/>
   <path class="fil1 str1" d="M2883.06 551.08l0 -229.06 -169.89 221.92c-7.82,9.86 -19.21,14.79 -34.18,14.79 -14.96,0 -26.36,-4.93 -34.18,-14.79l-169.37 -221.92 0 229.06 -70.4 0 0 -323.95c0,-10.89 3.99,-18.88 11.98,-23.98 8,-5.1 17.95,-7.66 29.85,-7.66 9.18,0 16.49,1.28 21.94,3.83 5.44,2.55 10.37,6.72 14.79,12.5l196.41 260.69 197.95 -260.69c4.42,-5.78 9.09,-9.95 14.03,-12.5 4.93,-2.55 11.81,-3.83 20.66,-3.83 11.9,0 21.85,2.56 29.84,7.66 7.99,5.1 11.99,13.09 11.99,23.98l0 323.95 -71.42 0zm261.71 0c-25.51,0 -46.76,-2.13 -63.77,-6.38 -17,-4.25 -30.61,-11.05 -40.81,-20.41 -10.21,-9.35 -17.43,-21.59 -21.68,-36.73 -4.26,-15.13 -6.38,-33.75 -6.38,-55.86l0 -157.13 76.52 0 0 155.09c0,11.9 1.11,21.51 3.32,28.82 2.21,7.32 5.7,13.01 10.46,17.09 4.76,4.09 11.14,6.89 19.13,8.42 7.99,1.53 17.77,2.3 29.33,2.3l79.59 0c12.24,0 22.45,-0.77 30.61,-2.3 8.16,-1.53 14.54,-4.33 19.13,-8.42 4.59,-4.08 7.82,-9.77 9.69,-17.09 1.87,-7.31 2.81,-16.92 2.81,-28.82l0 -155.09 75.5 0 0 157.13c0,22.11 -2.12,40.73 -6.37,55.86 -4.26,15.14 -11.48,27.38 -21.69,36.73 -10.2,9.36 -23.89,16.16 -41.06,20.41 -17.18,4.25 -38.69,6.38 -64.54,6.38l-89.79 0zm562.71 0l0 -154.07c0,-11.57 -0.93,-21 -2.8,-28.32 -1.88,-7.31 -5.11,-13.09 -9.7,-17.34 -4.59,-4.25 -10.88,-7.23 -18.87,-8.93 -8,-1.7 -18.11,-2.55 -30.36,-2.55l-82.65 0c-11.9,0 -21.85,0.85 -29.84,2.55 -7.99,1.7 -14.37,4.68 -19.13,8.93 -4.76,4.25 -8.08,10.03 -9.95,17.34 -1.87,7.32 -2.8,16.75 -2.8,28.32l0 154.07 -76.02 0 0 -156.62c0,-22.11 2.13,-40.81 6.38,-56.12 4.25,-15.3 11.48,-27.63 21.68,-36.99 10.2,-9.35 23.81,-16.15 40.81,-20.4 17.01,-4.25 38.27,-6.38 63.77,-6.38l92.34 0c25.85,0 47.28,2.13 64.28,6.38 17.01,4.25 30.61,11.05 40.82,20.4 10.2,9.36 17.43,21.69 21.68,36.99 4.25,15.31 6.38,34.01 6.38,56.12l0 156.62 -76.02 0zm265.29 0c-25.85,0 -47.36,-2.13 -64.54,-6.38 -17.17,-4.25 -30.86,-11.05 -41.07,-20.41 -10.2,-9.35 -17.43,-21.59 -21.68,-36.73 -4.25,-15.13 -6.38,-33.75 -6.38,-55.86l0 -37.24c0,-22.11 2.13,-40.81 6.38,-56.12 4.25,-15.3 11.48,-27.63 21.68,-36.99 10.21,-9.35 23.9,-16.15 41.07,-20.4 17.18,-4.25 38.69,-6.38 64.54,-6.38l153.56 0 0 -89.28 76.01 0 0 246.41c0,22.11 -2.13,40.73 -6.38,55.86 -4.25,15.14 -11.48,27.38 -21.68,36.73 -10.2,9.36 -23.81,16.16 -40.81,20.41 -17.01,4.25 -38.43,6.38 -64.28,6.38l-96.42 0zm-57.65 -121.42c0,12.24 0.93,22.11 2.8,29.59 1.87,7.48 5.36,13.26 10.46,17.34 5.1,4.09 11.99,6.81 20.66,8.17 8.68,1.36 19.82,2.04 33.42,2.04l84.69 0c11.9,0 21.68,-0.77 29.33,-2.3 7.65,-1.53 13.69,-4.42 18.11,-8.67 4.42,-4.25 7.48,-10.03 9.19,-17.35 1.7,-7.31 2.55,-16.75 2.55,-28.31l0 -90.3 -144.38 0c-13.26,0 -24.23,0.68 -32.91,2.04 -8.67,1.36 -15.56,4.08 -20.66,8.16 -5.1,4.09 -8.59,9.87 -10.46,17.35 -1.87,7.48 -2.8,17.35 -2.8,29.59l0 32.65zm470.88 121.42c-25.51,0 -46.77,-2.13 -63.77,-6.38 -17.01,-4.25 -30.61,-11.05 -40.81,-20.41 -10.21,-9.35 -17.43,-21.59 -21.69,-36.73 -4.25,-15.13 -6.37,-33.75 -6.37,-55.86l0 -37.24c0,-22.11 2.12,-40.81 6.37,-56.12 4.26,-15.3 11.48,-27.63 21.69,-36.99 10.2,-9.35 23.8,-16.15 40.81,-20.4 17,-4.25 38.26,-6.38 63.77,-6.38l92.34 0c25.85,0 47.27,2.13 64.28,6.38 17,4.25 30.61,11.14 40.81,20.66 10.21,9.52 17.43,21.94 21.68,37.24 4.26,15.31 6.38,34.01 6.38,56.12l0 36.73c0,22.11 -2.12,40.73 -6.38,55.86 -4.25,15.14 -11.47,27.38 -21.68,36.73 -10.2,9.36 -23.81,16.16 -40.81,20.41 -17.01,4.25 -38.43,6.38 -64.28,6.38l-92.34 0zm149.48 -154.07c0,-11.57 -0.94,-21.09 -2.81,-28.57 -1.87,-7.48 -5.27,-13.35 -10.2,-17.6 -4.93,-4.25 -11.82,-7.14 -20.66,-8.67 -8.85,-1.53 -20.07,-2.3 -33.67,-2.3l-71.94 0c-13.6,0 -24.74,0.77 -33.41,2.3 -8.68,1.53 -15.48,4.42 -20.41,8.67 -4.93,4.25 -8.33,10.12 -10.2,17.6 -1.87,7.48 -2.81,17 -2.81,28.57l0 32.65c0,11.56 0.94,21 2.81,28.31 1.87,7.32 5.27,13.1 10.2,17.35 4.93,4.25 11.73,7.23 20.41,8.93 8.67,1.7 19.81,2.55 33.41,2.55l71.94 0c13.6,0 24.82,-0.85 33.67,-2.55 8.84,-1.7 15.73,-4.68 20.66,-8.93 4.93,-4.25 8.33,-10.03 10.2,-17.35 1.87,-7.31 2.81,-16.75 2.81,-28.31l0 -32.65z"/>
   <path class="fil2" d="M226.35 192.72l394.58 0c30.17,0 54.85,24.69 54.85,54.86l0 248.64c0,30.17 -24.68,54.86 -54.85,54.86l-394.58 0c-30.17,0 -54.85,-24.69 -54.85,-54.86l0 -248.64c0,-30.17 24.68,-54.86 54.85,-54.86z"/>
   <path class="fil3" d="M447.47 489.66c-0.24,-1.45 -0.42,-2.76 -0.55,-3.92 -0.12,-1.15 -0.18,-2.17 -0.18,-3.04l0 -8.26c0,-6.09 0.24,-12.76 0.73,-20.01 0.49,-7.24 1.04,-14.35 1.65,-21.3 0.62,-6.96 1.35,-13.48 2.21,-19.57 0.85,-6.09 1.65,-11.16 2.38,-15.22l15.78 -88.71 -55.77 0 -42.93 240.04 76.68 -60.01zm-74.84 -232.65l50.63 0 -6.24 35.22 55.77 0 6.24 -35.22 50.63 0 11.74 -64.36 -157.03 0 -11.74 64.36z"/>
   <path class="fil3" d="M554.66 501.28c14.92,0 28.56,-4.42 40.91,-13.27 12.35,-8.84 23.24,-20.44 32.65,-34.79 9.42,-14.35 17.37,-30.73 23.85,-49.13 6.48,-18.41 11.43,-37.33 14.86,-56.75l0.73 -2.61c0.98,-5.8 1.78,-11.6 2.39,-17.4 0.61,-5.79 1.16,-11.59 1.65,-17.39l-57.24 0c0,8.41 -0.97,19.28 -2.93,32.61 -0.98,5.51 -2.94,13.48 -5.87,23.92 -2.94,10.44 -6.73,20.87 -11.38,31.31 -4.64,10.44 -9.96,19.57 -15.96,27.4 -5.99,7.82 -12.41,11.74 -19.26,11.74l-2.93 0c-4.4,0 -8.01,-1.52 -10.82,-4.57 -2.82,-3.04 -5.02,-7.03 -6.61,-11.96 -1.59,-4.93 -2.75,-10.51 -3.48,-16.74 -0.74,-6.23 -1.1,-12.68 -1.1,-19.35 0,-8.41 0.36,-16.38 1.1,-23.92 0.73,-7.53 1.59,-13.48 2.57,-17.83 0.97,-4.92 2.2,-10.14 3.66,-15.65 1.47,-5.51 3.31,-11.16 5.51,-16.96l-58.34 0c-3.18,11.6 -5.75,23.19 -7.7,34.79l-0.74 2.61c-3.18,16.23 -4.77,33.92 -4.77,53.05 0,13.91 1.16,27.03 3.49,39.35 2.32,12.33 6.05,23.05 11.19,32.18 5.13,9.14 11.68,16.31 19.63,21.53 7.95,5.22 17.67,7.83 29.16,7.83l15.78 0zm34.86 -243.96l2.93 0c6.36,2.32 11.13,6.67 14.31,13.05 3.18,6.38 5.38,13.77 6.6,22.18l59.07 0 0 -1.31c0,-13.04 -1.04,-25.51 -3.12,-37.4 -2.08,-11.88 -5.56,-22.32 -10.45,-31.31 -4.89,-8.98 -11.31,-16.16 -19.26,-21.52 -7.95,-5.36 -17.8,-8.05 -29.54,-8.05l-15.41 0c-12.72,0 -24.27,2.76 -34.67,8.27 -10.39,5.5 -19.75,12.82 -28.07,21.96 -8.31,9.13 -15.59,19.71 -21.82,31.74 -6.24,12.03 -11.56,24.57 -15.97,37.62l60.54 0c4.4,-8.41 9.54,-15.8 15.41,-22.18 5.87,-6.38 12.35,-10.73 19.45,-13.05z"/>
   <path class="fil3" d="M269.45 287.33l1.83 5.22 72.28 0 4.04 -5.22 -1.1 5.22 55.76 0 17.98 -99.58 -53.2 0 -55.03 72.62 -28.62 -72.62 -53.2 0 -17.97 99.58 56.13 0 1.1 -5.22zm-94.66 213.95l56.14 0 34.49 -191.34 -56.51 0 -34.12 191.34zm190.05 0l34.12 -191.34 -55.4 0 -34.48 191.34 55.76 0zm-70.07 -149.16l3.3 0 32.28 -42.18 -52.09 0 16.51 42.18z"/>
   <path class="fil4" d="M192.82 2.7l4397.36 0c98.69,0 179.44,80.75 179.44,179.45l0 379.73c0,98.69 -80.75,179.44 -179.44,179.44l-4397.36 0c-98.69,0 -179.44,-80.75 -179.44,-179.44l0 -379.73c0,-98.7 80.75,-179.45 179.44,-179.45z"/>
  </g>
 </g>
</svg>
