<?xml version="1.0" encoding="UTF-8"?>
<!DOCTYPE svg PUBLIC "-//W3C//DTD SVG 1.1//EN" "http://www.w3.org/Graphics/SVG/1.1/DTD/svg11.dtd">
<!-- Creator: CorelDRAW 2020 (64-Bit) -->
<svg xmlns="http://www.w3.org/2000/svg" xml:space="preserve" width="1299px" height="969px" version="1.1" style="shape-rendering:geometricPrecision; text-rendering:geometricPrecision; image-rendering:optimizeQuality; fill-rule:evenodd; clip-rule:evenodd"
viewBox="0 0 1299 968.35"
 xmlns:xlink="http://www.w3.org/1999/xlink"
 xmlns:xodm="http://www.corel.com/coreldraw/odm/2003">
 <defs>
  <style type="text/css">
   <![CDATA[
    .str0 {stroke:black;stroke-width:23.62;stroke-miterlimit:22.9256}
    .str1 {stroke:#0103F6;stroke-width:2.36;stroke-miterlimit:22.9256}
    .fil0 {fill:#FEFEFE}
    .fil1 {fill:#0103F6}
    .fil2 {fill:#96989A;fill-rule:nonzero}
   ]]>
  </style>
 </defs>
 <g id="Capa_x0020_1">
  <metadata id="CorelCorpID_0Corel-Layer"/>
  <g id="_3263742817312">
   <path class="fil0 str0" d="M158.35 24.27l982.3 0c77.44,0 140.8,63.36 140.8,140.79l0 638.22c0,77.44 -63.36,140.8 -140.8,140.8l-982.3 0c-77.44,0 -140.8,-63.36 -140.8,-140.8l0 -638.22c0,-77.43 63.36,-140.79 140.8,-140.79z"/>
   <path class="fil1 str1" d="M196.62 72.87l905.76 0c69.25,0 125.92,56.66 125.92,125.92l0 570.77c0,69.25 -56.67,125.92 -125.92,125.92l-905.76 0c-69.25,0 -125.92,-56.67 -125.92,-125.92l0 -570.77c0,-69.26 56.67,-125.92 125.92,-125.92z"/>
   <path class="fil2" d="M704.2 754.49c-0.56,-3.33 -0.98,-6.33 -1.26,-8.99 -0.28,-2.66 -0.42,-4.99 -0.42,-6.98l0 -18.97c0,-13.98 0.56,-29.28 1.68,-45.92 1.13,-16.63 2.39,-32.94 3.79,-48.91 1.41,-15.97 3.09,-30.95 5.06,-44.92 1.96,-13.98 3.79,-25.62 5.47,-34.94l36.22 -203.63 -128.02 0 -98.53 551.01 176.01 -137.75zm-171.8 -534.05l116.22 0 -14.32 80.86 128.02 0 14.31 -80.86 116.23 0 26.95 -147.73 -360.47 0 -26.94 147.73z"/>
   <path class="fil2" d="M950.26 781.16c34.24,0 65.55,-10.15 93.9,-30.45 28.35,-20.3 53.34,-46.91 74.96,-79.86 21.61,-32.94 39.86,-70.54 54.74,-112.79 14.88,-42.26 26.25,-85.68 34.11,-130.27l1.68 -5.99c2.25,-13.31 4.07,-26.62 5.48,-39.93 1.4,-13.31 2.66,-26.62 3.79,-39.93l-131.39 0c0,19.3 -2.24,44.26 -6.73,74.87 -2.25,12.64 -6.74,30.94 -13.48,54.9 -6.74,23.96 -15.44,47.91 -26.11,71.87 -10.66,23.96 -22.88,44.92 -36.63,62.89 -13.76,17.97 -28.5,26.95 -44.22,26.95l-6.74 0c-10.1,0 -18.38,-3.49 -24.84,-10.48 -6.46,-6.99 -11.51,-16.14 -15.16,-27.45 -3.65,-11.31 -6.32,-24.12 -8,-38.43 -1.69,-14.31 -2.53,-29.12 -2.53,-44.42 0,-19.3 0.84,-37.6 2.53,-54.9 1.68,-17.31 3.65,-30.95 5.89,-40.93 2.25,-11.31 5.06,-23.29 8.43,-35.94 3.36,-12.64 7.58,-25.62 12.63,-38.93l-133.91 0c-7.3,26.62 -13.19,53.24 -17.69,79.86l-1.68 5.99c-7.3,37.27 -10.95,77.86 -10.95,121.78 0,31.95 2.67,62.06 8,90.34 5.33,28.28 13.9,52.91 25.69,73.87 11.79,20.96 26.81,37.43 45.06,49.41 18.24,11.98 40.56,17.97 66.95,17.97l36.22 0zm80 -560l6.74 0c14.6,5.32 25.55,15.31 32.85,29.95 7.29,14.64 12.35,31.61 15.16,50.91l135.59 0 0 -3c0,-29.95 -2.39,-58.56 -7.16,-85.85 -4.77,-27.28 -12.77,-51.24 -24,-71.87 -11.23,-20.63 -25.97,-37.1 -44.22,-49.41 -18.24,-12.31 -40.84,-18.47 -67.79,-18.47l-35.38 0c-29.19,0 -55.72,6.33 -79.58,18.97 -23.87,12.64 -45.34,29.45 -64.43,50.41 -19.09,20.96 -35.79,45.25 -50.11,72.87 -14.32,27.62 -26.53,56.4 -36.64,86.35l138.97 0c10.1,-19.3 21.89,-36.27 35.37,-50.91 13.47,-14.64 28.35,-24.63 44.63,-29.95z"/>
   <path class="fil2" d="M295.55 290.04l4.21 11.98 165.91 0 9.27 -11.98 -2.53 11.98 128.01 0 41.27 -228.59 -122.12 0 -126.32 166.7 -65.7 -166.7 -122.11 0 -41.27 228.59 128.85 0 2.53 -11.98zm-217.29 491.12l128.86 0 79.17 -439.21 -129.7 0 -78.33 439.21zm436.26 0l78.32 -439.21 -127.17 0 -79.16 439.21 128.01 0zm-160.86 -342.39l7.58 0 74.12 -96.82 -119.6 0 37.9 96.82z"/>
  </g>
 </g>
</svg>
